<svg xmlns="http://www.w3.org/2000/svg" viewBox="0 0 100 100"><defs><style>.cls-1{fill:#d71e00;}.cls-2{fill:#c21a00;}.cls-3{fill:#fff;}.cls-4{fill:#eaeaea;}.cls-5{fill:#cdcdcd;}</style></defs><title>producticons_0219_RGB_Mobile Push color</title><g id="Layer_1" data-name="Layer 1"><circle class="cls-1" cx="50" cy="50" r="50"/><path class="cls-2" d="M85.36,14.64A50,50,0,0,1,14.64,85.36Z"/><path class="cls-3" d="M48.35,33.26a18.21,18.21,0,0,1,.24-2.79H28.67a4.41,4.41,0,0,0-4.42,4.41V67L50.14,41.11A18.27,18.27,0,0,1,48.35,33.26Z"/><path class="cls-4" d="M50.14,41.11,24.25,67v4.18a4.41,4.41,0,0,0,4.42,4.41H65a4.41,4.41,0,0,0,4.41-4.41V51.4a17.9,17.9,0,0,1-2.66.21A18.34,18.34,0,0,1,50.14,41.11Z"/><path class="cls-4" d="M50.14,41.11,60.78,30.47H48.59a17.62,17.62,0,0,0,1.55,10.64Z"/><path class="cls-5" d="M65,30.47H60.78L50.14,41.11a18.34,18.34,0,0,0,16.57,10.5,17.9,17.9,0,0,0,2.66-.21V34.88A4.41,4.41,0,0,0,65,30.47Z"/><circle class="cls-3" cx="66.71" cy="33.26" r="14.15"/><path d="M61.68,39.07a7.62,7.62,0,0,1,.49-2.8,7.17,7.17,0,0,1,1.26-2.07,8.24,8.24,0,0,1,1.84-1.52,18.85,18.85,0,0,1,2.19-1.14,3.11,3.11,0,0,0,1.11-.72,1.25,1.25,0,0,0,.31-.79,1.13,1.13,0,0,0-.47-.87,2.45,2.45,0,0,0-1.6-.4,4.54,4.54,0,0,0-2,.44,6.19,6.19,0,0,0-1.55,1.07l-1.62-1.89a6.82,6.82,0,0,1,2.3-1.55,7.38,7.38,0,0,1,2.8-.53,5.67,5.67,0,0,1,3.45.9,3.17,3.17,0,0,1,1.2,2.71,4.07,4.07,0,0,1-.2,1.32,3.25,3.25,0,0,1-.61,1,4.41,4.41,0,0,1-1,.82,14.89,14.89,0,0,1-1.41.75,12.51,12.51,0,0,0-1.43.73,9,9,0,0,0-1,.7,3.43,3.43,0,0,0-.61.69,2.7,2.7,0,0,0-.3.71H71.5v2.43Z"/></g></svg>