<svg xmlns="http://www.w3.org/2000/svg" viewBox="0 0 100 100"><defs><style>.cls-1{fill:#d71e00;}.cls-2{fill:#c21a00;}.cls-3{fill:#b7b7b7;}.cls-4{fill:#fff;}.cls-5{fill:#eaeaea;}.cls-6{fill:#cdcdcd;}</style></defs><title>producticons_0219_RGB_Mobile Data Sync color</title><g id="Layer_1" data-name="Layer 1"><circle class="cls-1" cx="50" cy="50" r="50"/><path class="cls-2" d="M85.36,14.64A50,50,0,0,1,14.64,85.36Z"/><path class="cls-3" d="M74,56.29c-3.91,1.9-13.25,3.24-24.17,3.24s-20.26-1.34-24.16-3.24c-1.26.61-1.95,1.28-1.95,2,0,2.89,11.69,5.23,26.11,5.23S76,61.16,76,58.27C76,57.57,75.29,56.9,74,56.29Z"/><ellipse class="cls-4" cx="49.87" cy="33.04" rx="26.12" ry="5.22"/><path class="cls-3" d="M74,43.68c-3.91,1.9-13.25,3.24-24.17,3.24s-20.26-1.34-24.16-3.24c-1.26.61-1.95,1.28-1.95,2,0,2.88,11.69,5.22,26.11,5.22S76,48.54,76,45.66C76,45,75.29,44.29,74,43.68Z"/><polygon class="cls-4" points="49.83 11.99 42.04 22.75 57.62 22.75 49.83 11.99"/><polygon class="cls-5" points="49.83 87.06 57.62 76.3 42.04 76.3 49.83 87.06"/><path class="cls-5" d="M23.76,58.27v8.66c0,1.72,4.18,3.25,10.62,4.2l7.86-7.86C31.54,62.62,23.76,60.63,23.76,58.27Z"/><path class="cls-5" d="M49.87,50.88c-14.42,0-26.11-2.34-26.11-5.22v8.65c0,2.62,9.67,4.8,22.28,5.17l8.68-8.69C53.15,50.85,51.53,50.88,49.87,50.88Z"/><path class="cls-5" d="M49.87,38.26c-14.42,0-26.11-2.33-26.11-5.22v8.65c0,2.89,11.69,5.23,26.11,5.23,3.18,0,6.23-.12,9.05-.33l10-10A97.21,97.21,0,0,1,49.87,38.26Z"/><path class="cls-6" d="M76,66.93V58.27c0,2.89-11.69,5.23-26.12,5.23-2.65,0-5.21-.08-7.63-.23l-7.86,7.86a109,109,0,0,0,15.49,1C64.3,72.15,76,69.81,76,66.93Z"/><path class="cls-6" d="M76,54.31V45.66c0,2.55-9.16,4.67-21.27,5.13L46,59.48c1.25,0,2.53.05,3.83.05C64.3,59.53,76,57.2,76,54.31Z"/><path class="cls-6" d="M76,41.69V33c0,1.39-2.7,2.64-7.09,3.58l-10,10C68.88,45.86,76,43.94,76,41.69Z"/></g></svg>