<?xml version="1.0" encoding="utf-8"?>
<!-- Generator: Adobe Illustrator 15.0.2, SVG Export Plug-In  -->
<!DOCTYPE svg PUBLIC "-//W3C//DTD SVG 1.1//EN" "http://www.w3.org/Graphics/SVG/1.1/DTD/svg11.dtd" [
	<!ENTITY ns_flows "http://ns.adobe.com/Flows/1.0/">
]>
<svg version="1.1"
	 xmlns="http://www.w3.org/2000/svg" xmlns:xlink="http://www.w3.org/1999/xlink" xmlns:a="http://ns.adobe.com/AdobeSVGViewerExtensions/3.0/"
	 x="0px" y="0px" width="450px" height="141px" viewBox="-0.5 0.5 450 141"
	 overflow="visible" enable-background="new -0.5 0.5 450 141" xml:space="preserve">
<defs>
</defs>
<path fill-rule="evenodd" clip-rule="evenodd" fill="#E25027" d="M356.229,78.6c-9.943,0-19.887,0-29.832,0
	c-0.021,1.12-0.209,2.624,0,3.891c0.074,0.446,0.136,1.387,0.325,1.945c0.054,0.162,0.497,1.083,0.647,1.298
	c0.887,1.259,4.586,2.423,7.135,2.594c6.082,0.412,14.896-1.549,18.483-2.594c1.356,3.722,2.008,8.151,2.594,12.646
	c-7.972,2.429-17.162,4.184-25.941,3.243c-1.14-0.122-1.733-0.028-3.243-0.324c-0.167-0.033-2.615-0.61-4.215-1.297
	c-1.323-0.568-4.025-2.036-5.512-3.242c-0.69-0.56-1.425-1.065-1.946-1.622c-0.278-0.297-1.448-1.68-1.622-1.946
	c-0.413-0.627-1.113-2.307-1.622-3.565c-0.276-0.686-0.454-1.3-0.648-1.945c-2.093-6.957-2.322-25.333,0.648-31.778
	c0.386-0.839,0.949-2.875,1.622-3.892c0.235-0.353,1.204-0.975,1.622-1.621c1.595-2.466,5.628-4.495,9.08-5.511
	c0.633-0.189,2.196-0.722,3.565-0.975c2.188-0.404,6.738-0.401,8.107-0.323c1.336,0.075,2.713,0.154,3.891,0.323
	c0.477,0.067,2.539,0.347,3.57,0.722c1.505,0.547,4.442,1.943,4.86,2.197c1.467,0.89,3.145,2.368,3.892,3.241
	c0.505,0.592,1.144,1.758,1.621,2.595C356.714,58.625,356.418,68.056,356.229,78.6z M340.663,61.738
	c-0.069-0.863-0.465-1.926-0.646-2.271c-0.642-1.218-1.813-1.867-1.946-1.945c-1.367-0.791-4.984-1.013-6.811-0.649
	c-4.09,0.819-5.426,4.857-4.863,9.081c4.757,0,9.512,0,14.267,0C340.719,64.719,340.776,63.146,340.663,61.738z"/>
<path fill-rule="evenodd" clip-rule="evenodd" fill="#E25027" d="M407.362,100.649c-1.686,0-4.085,0-6.486,0
	c-2.213,0-5.668,0.061-6.209-0.189c-1.528-0.706-1.341-1.798-1.897-3.378c-5.339,2.871-14.237,6.724-21.725,3.893
	c-0.645-0.243-2.837-1.308-3.893-2.271c-2.58-2.354-4.475-6.982-4.865-11.35c-0.651-7.327,1.384-13.12,5.839-15.889
	c1.16-0.721,3.8-1.983,6.16-2.271c5.432-0.66,9.536,0.474,16.537,0c0.108-1.113,0.057-2.702,0-4.215
	c-0.068-1.793,0.032-3.226-0.323-4.215c-0.429-1.188-1.655-2.335-2.919-2.918c-1.074-0.496-4.266-0.648-6.162-0.648
	c-5.434,0-12.111,1.116-15.563,1.621c-0.445-4.312-1.546-7.967-1.946-12.322c4.827-2.002,11.924-2.209,17.835-2.918
	c1.628-0.197,3.485-0.095,5.514,0c3.662,0.169,6.688,0.638,9.727,1.62c2.526,0.817,3.575,1.415,5.188,2.595
	c0.744,0.544,1.574,1.407,1.869,1.752c0.513,0.598,1.523,2.12,2.021,3.436c1.051,2.776,1.468,7.378,1.622,11.026
	C408.156,75.204,407.586,90.236,407.362,100.649z M379.149,81.519c-1.292,1.247-1.271,5.179,0,6.485
	c0.893,0.917,2,0.983,1.946,0.973c3.244,0.694,8.597-1.187,10.051-2.595c-0.75-1.303-0.11-3.995-0.323-5.836
	C387,80.984,381.11,79.627,379.149,81.519z"/>
<path fill-rule="evenodd" clip-rule="evenodd" fill="#E25027" d="M448.765,59.144c-5.11,2.35-10.465,4.452-14.916,7.459
	c0,11.348,0,22.698,0,34.047c-5.513,0-11.024,0-16.537,0c0-18.699,0-37.399,0-56.097c3.73-0.006,10.123-0.034,13.271,0.202
	c0.667,0,0.542,0.834,0.996,2.392c0.246,0.845,0.379,1.817,0.647,2.595c0.096,0.352,0.38,0.182,0.648,0
	c1.458-0.986,3.804-2.298,5.838-3.243c2.429-1.129,5.454-2.159,8.105-2.918c0.276-0.061,0.306,0.126,0.324,0.323
	C447.667,46.38,448.417,53.672,448.765,59.144z"/>
<path fill-rule="evenodd" clip-rule="evenodd" fill="#669EB2" d="M23.67,54.071c7.459,0,14.917,0,22.376,0
	c2.07,6.352,3.897,12.746,5.835,19.131c1.443,4.749,3.145,9.483,4.541,14.267c0.483,1.656,0.809,3.272,1.296,4.865
	c3.897,12.737,8.075,25.374,11.674,38.262c-5.946,0-11.891,0-17.835,0c-1.468-4.91-2.688-10.064-4.215-14.915
	c-0.655,0.007-24.342,0.132-25.292,0.323c-1.653,4.617-2.759,9.779-4.215,14.592c-5.944,0-11.889,0-17.835,0
	c5.574-18.988,11.271-37.874,17.186-56.746c1.977-6.306,3.621-12.63,5.837-18.806C23.009,54.488,23.265,54.203,23.67,54.071z
	 M34.048,71.257c-2.501,9.686-5.438,20.024-8.106,29.83c0.558,0.038,16.371-0.024,17.186,0c-2.729-10.348-5.43-20.728-8.43-30.803
	C34.389,70.406,34.128,70.942,34.048,71.257z"/>
<path fill-rule="evenodd" clip-rule="evenodd" fill="#669EB2" d="M117.63,108.547c-9.943,0-19.888,0-29.831,0
	c-0.104,1.771,0.003,3.189,0.323,4.539c0.176,0.738,0.309,0.857,0.649,1.622c0.853,1.917,3.012,2.753,3.566,2.918
	c2.642,0.786,5.254,0.62,8.755,0.323c3.477-0.293,6.738-0.637,9.729-1.296c1.513-0.333,2.865-0.591,3.891-0.649
	c0.922,3.942,1.787,8.621,2.27,12.322c-5.235,1.699-11.641,3.131-18.159,3.567c-5.217,0.349-10.393-0.246-14.616-1.768
	c-0.767-0.276-1.591-0.525-2.247-0.827c-1.041-0.479-2.359-1.41-3.566-2.27c-0.115-0.08-2.164-2.033-3.244-3.566
	c-1.078-1.532-3.027-5.025-3.566-7.782c-0.626-3.205-0.326-7.318-0.326-11.349c0-4.121-0.321-8.382,0-11.998
	c0.275-3.072,1.285-6.022,2.595-8.432c0.922-1.692,1.84-3.449,2.918-4.539c0.269-0.271,1.677-1.436,1.946-1.623
	c2.238-1.545,5.576-2.679,8.756-3.565c3.655-1.021,9.994-0.775,14.267,0c1.423,0.258,2.646,0.528,3.892,0.973
	c1.1,0.393,2.269,0.851,3.116,1.321c0.562,0.312,1.464,0.877,1.562,0.938c4.312,2.656,6.875,9.164,7.317,14.928
	C117.999,97.106,117.75,102.75,117.63,108.547z M99.797,87.793c-2.92-1.893-9.114-0.912-10.701,0.973
	c-0.102,0.123-0.567,0.856-0.647,0.974c-0.961,1.397-0.698,5.073-0.649,6.16c4.755,0,9.512,0,14.267,0
	C102.271,91.867,101.784,89.082,99.797,87.793z"/>
<path fill-rule="evenodd" clip-rule="evenodd" fill="#669EB2" d="M157.763,88.766c-0.117,0.733-0.388,0.734-1.62,1.299
	c-1.644,0.753-4.001,1.374-5.837,2.27c-2.566,1.25-5.431,2.729-7.133,3.89c0,11.458,0,22.915,0,34.372
	c0.015,0.029-16.86,0.029-16.922-0.033c0-18.482,0.06-37.258,0.06-55.738c3.34-0.041,10.599-0.006,13.944,0
	c0.31,1.743,0.559,3.113,0.973,5.187c4.564-2.568,9.403-4.863,14.917-6.485C157.285,78.004,157.688,85.125,157.763,88.766z"/>
<path fill="#E25027" d="M318.28,53.638l-2.765-13.99c-0.22-1.092-0.961-1.97-1.836-2.15l-8.13-1.661
	c1.89,3.845,3.321,7.991,4.166,12.403c0.834,4.318,1.047,8.611,0.749,12.799l6.936-4.708
	C318.139,55.829,318.493,54.735,318.28,53.638z"/>
<path fill-rule="evenodd" clip-rule="evenodd" fill="#E25027" d="M309.864,47.507c-5.524-26.737-31.678-43.936-58.417-38.41
	c-26.739,5.524-43.936,31.68-38.41,58.418c4.841,23.433,25.527,39.533,48.563,39.439c-16.352-2.685-30.14-15.139-33.693-32.334
	c-4.606-22.296,9.731-44.104,32.027-48.711c22.295-4.607,44.102,9.731,48.708,32.027c0.826,3.992,1.033,7.968,0.707,11.834
	C311.162,62.705,311.441,55.132,309.864,47.507z"/>
<path fill="#E25027" d="M212.392,53.157l-8.25,5.453c-0.75,0.496-1.109,1.582-0.904,2.68l2.656,14.012
	c0.208,1.099,0.949,1.982,1.824,2.176l9.698,2.101c-1.976-3.942-3.465-8.208-4.338-12.751
	C212.19,62.21,211.994,57.621,212.392,53.157z"/>
<path fill="#E25027" d="M264.936,8.467l-5.063-7.517c-0.501-0.743-1.594-1.102-2.693-0.89l-13.996,2.718
	c-1.101,0.213-1.975,0.952-2.159,1.83l-1.877,9.043c4.001-2.027,8.339-3.549,12.961-4.44C256.436,8.38,260.737,8.165,264.936,8.467z
	"/>
<path fill="#E25027" d="M229.47,20.11l-9.268-1.812c-0.878-0.168-1.907,0.353-2.532,1.276l-7.977,11.819
	c-0.626,0.931-0.725,2.074-0.233,2.819l5.214,7.955C217.497,33.61,222.621,25.965,229.47,20.11z"/>
<path fill="#E25027" d="M223.492,88.871l-1.924,9.581c-0.175,0.878,0.342,1.9,1.272,2.53l11.808,7.991
	c0.928,0.627,2.073,0.722,2.823,0.236l7.951-5.153C236.871,101.11,229.271,95.847,223.492,88.871z"/>
<path fill="#E25027" d="M298.384,25.127l1.671-8.317c0.177-0.871-0.341-1.9-1.271-2.526l-11.81-7.991
	c-0.925-0.622-2.073-0.721-2.823-0.238l-7.363,4.773C285.131,13.583,292.596,18.53,298.384,25.127z"/>
<path fill="#EB8467" d="M293.366,68.067c0.11-9.659-7.859-15.23-15.353-17.225c-2.171-0.577-4.369-0.825-6.532-0.736
	c-9.141,0.375-16.655,6.658-19.142,16.009c-1.548,5.815-0.892,11.692,1.842,16.544c2.707,4.801,7.246,8.255,12.778,9.727
	c2.319,0.617,4.655,0.884,6.942,0.79c3.556-0.146,8.431-1.247,12.606-5.404l-20.611-5.484c-0.91-0.241-1.453-1.176-1.21-2.085
	l2.359-8.861c0.242-0.909,1.174-1.449,2.084-1.209l33.414,8.89c0.744-2.794,1.1-5.718,1.027-8.7l-8.606-0.533
	C294.059,69.731,293.355,68.976,293.366,68.067z"/>
<path fill="#669EB2" d="M221.11,106.977l-5.213-3.549c-0.006-0.074-0.007-0.151-0.014-0.226c-0.17-1.77-0.511-3.505-0.994-5.184
	c-0.021-0.071-0.049-0.143-0.069-0.214l3.553-5.346c0.297-0.443,0.246-1.129-0.117-1.685l-4.632-7.096
	c-0.363-0.556-0.966-0.873-1.486-0.775l-6.277,1.187c-0.058-0.048-0.11-0.101-0.168-0.148c-1.295-1.073-2.688-2.04-4.176-2.877
	c-0.064-0.034-0.131-0.063-0.195-0.099l-1.274-6.398c-0.106-0.523-0.621-0.97-1.268-1.102l-8.258-1.679
	c-0.646-0.132-1.293,0.075-1.593,0.516l-3.564,5.288c-0.073,0.004-0.147,0.006-0.221,0.013c-1.768,0.166-3.501,0.504-5.182,0.991
	c-0.074,0.021-0.146,0.051-0.221,0.072l-5.287-3.532c-0.44-0.293-1.119-0.24-1.671,0.129l-7.038,4.714
	c-0.553,0.37-0.866,0.98-0.768,1.505l1.145,6.137c-0.048,0.055-0.102,0.107-0.148,0.165c-1.156,1.393-2.19,2.904-3.076,4.521
	c-0.036,0.065-0.065,0.134-0.102,0.199l-6.262,1.241c-0.521,0.102-0.966,0.621-1.102,1.272l-1.734,8.343
	c-0.134,0.652,0.069,1.308,0.503,1.613l5.24,3.665c0.006,0.075,0.007,0.149,0.014,0.224c0.166,1.815,0.506,3.593,1.002,5.312
	c0.021,0.074,0.047,0.146,0.07,0.217l-3.533,5.313c-0.294,0.443-0.246,1.127,0.118,1.686l4.631,7.093
	c0.362,0.556,0.966,0.874,1.487,0.776l6.218-1.174c0.058,0.047,0.111,0.101,0.169,0.151c1.397,1.16,2.911,2.195,4.532,3.079
	c0.065,0.037,0.135,0.065,0.199,0.1l1.2,6.212c0.103,0.524,0.616,0.972,1.266,1.099l8.252,1.693c0.649,0.133,1.296-0.079,1.6-0.519
	l3.623-5.307c0.073-0.009,0.153-0.009,0.226-0.016c1.192-0.126,2.366-0.333,3.518-0.608c-1.683,0.177-3.409,0.176-5.161-0.073
	c-11.524-1.635-19.539-12.305-17.901-23.827c1.636-11.525,12.304-19.542,23.83-17.904c11.522,1.636,19.537,12.304,17.901,23.829
	c-0.376,2.649-1.248,5.1-2.479,7.302c0.845-1.124,1.637-2.3,2.316-3.558c0.036-0.067,0.065-0.139,0.103-0.207l6.219-1.307
	c0.518-0.111,0.961-0.635,1.092-1.288l1.669-8.354C221.755,107.927,221.549,107.276,221.11,106.977z"/>
</svg>
