<?xml version="1.0" encoding="UTF-8"?>
<svg width="102px" height="103px" viewBox="0 0 102 103" version="1.1" xmlns="http://www.w3.org/2000/svg" xmlns:xlink="http://www.w3.org/1999/xlink">
    <!-- Generator: Sketch 53.2 (72643) - https://sketchapp.com -->
    <title>Artboard</title>
    <desc>Created with Sketch.</desc>
    <g id="Artboard" stroke="none" stroke-width="1" fill="none" fill-rule="evenodd">
        <g id="keycloak-b&amp;w" transform="translate(-20.000000, -19.000000)" fill-rule="nonzero">
            <circle id="Oval" fill="#D71E00" transform="translate(71.000000, 71.000000) rotate(-45.000000) translate(-71.000000, -71.000000) " cx="71" cy="71" r="50"></circle>
            <path d="M106.36,35.64 C125.888789,55.1687888 125.888789,86.8312112 106.36,106.36 C86.8312112,125.888789 55.1687888,125.888789 35.64,106.36 L106.36,35.64 Z" id="Path" fill="#C21A00"></path>
            <path d="M44.48,91.58 L44.48,94.58 C44.4709044,94.6731117 44.4709044,94.7668883 44.48,94.86 L67,72.45 L66.29,69.82 L44.48,91.58 Z M102.24,63.09 L97.65,45.95 C97.5311117,45.5764779 97.3050818,45.2461265 97,45 L94.79,47.21 C95.0922601,47.4736266 95.3082768,47.8220406 95.41,48.21 L99.2,62.34 C99.4086856,63.0533578 99.2045701,63.8236049 98.67,64.34 L88.36,74.59 C87.8436049,75.1245701 87.0733578,75.3286856 86.36,75.12 L72.27,71.33 C71.8820406,71.2282768 71.5336266,71.0122601 71.27,70.71 L69.06,72.92 C69.3236266,73.2222601 69.6720406,73.4382768 70.06,73.54 L87.2,78.13 C87.9133578,78.3386856 88.6836049,78.1345701 89.2,77.6 L101.72,65.05 C102.236245,64.5394828 102.435276,63.7892881 102.24,63.09 L102.24,63.09 Z" id="Shape" fill="#CDCDCD"></path>
            <path d="M66.09,62.62 L64.38,64.33 C63.5563333,65.1603933 63.5563333,66.4996067 64.38,67.33 L65.15,68.1 L44.85,88.4 C44.6151038,88.6328329 44.4820569,88.9492688 44.48,89.28 L44.48,91.57 L66.24,69.82 L67,72.45 L44.51,94.89 C44.6638244,95.5434205 45.2487286,96.003877 45.92,96 L69.08,72.91 C68.8776726,72.6688249 68.7247692,72.390201 68.63,72.09 L66.09,62.62 Z M94,46.71 L79.88,42.93 C79.1666422,42.7213144 78.3963951,42.9254299 77.88,43.46 L67.57,53.8 C67.0354299,54.3163951 66.8313144,55.0866422 67.04,55.8 L70.83,69.93 C70.9130766,70.2350601 71.0672938,70.5160781 71.28,70.75 L87.57,54.43 L83.14,50 C83.0344355,49.5939681 83.1395965,49.1620571 83.42,48.85 L83.36,48.85 L83.47,48.74 L83.47,48.8 C83.7820571,48.5195965 84.2139681,48.4144355 84.62,48.52 L91,50.29 C91.1729183,50.3383242 91.3332801,50.423623 91.47,50.54 L94.84,47.17 C94.6013859,46.9509007 94.3131218,46.7930418 94,46.71 Z" id="Shape" fill="#FFFFFF"></path>
            <path d="M99.23,62.28 L95.45,48.15 C95.3482768,47.7620406 95.1322601,47.4136266 94.83,47.15 L91.46,50.52 C91.6634856,50.6841604 91.8103758,50.9079931 91.88,51.16 L93.6,57.57 C93.7055645,57.9760319 93.6004035,58.4079429 93.32,58.72 L93.38,58.72 L93.27,58.83 L93.27,58.77 C92.9579429,59.0504035 92.5260319,59.1555645 92.12,59.05 L87.53,54.46 L71.29,70.71 C71.5536266,71.0122601 71.9020406,71.2282768 72.29,71.33 L86.4,75.11 C87.1133578,75.3186856 87.8836049,75.1145701 88.4,74.58 L98.7,64.24 C99.219819,63.7315838 99.4227554,62.9811021 99.23,62.28 L99.23,62.28 Z" id="Path" fill="#EAEAEA"></path>
            <path d="M96.21,44.51 L79.07,39.92 C78.3566422,39.7113144 77.5863951,39.9154299 77.07,40.45 L64.56,53 C64.0146793,53.5098938 63.798751,54.2810667 64,55 L68.59,72.14 C68.6847692,72.440201 68.8376726,72.7188249 69.04,72.96 L45.95,96 L52.59,96 C52.9207312,95.9979431 53.2371671,95.8648962 53.47,95.63 L55.3,93.8 C55.5348962,93.5671671 55.6679431,93.2507312 55.67,92.92 L55.67,89.32 C55.671148,89.2006997 55.7176226,89.0863008 55.8,89 L56.42,88.38 C56.5071853,88.2915701 56.6258244,88.2412384 56.75,88.24 L59.89,88.24 C60.2207312,88.2379431 60.5371671,88.1048962 60.77,87.87 L61.33,87.31 C61.5648962,87.0771671 61.6979431,86.7607312 61.7,86.43 L61.7,84.17 C61.7012384,84.0458244 61.7515701,83.9271853 61.84,83.84 L62.54,83.14 C62.6271853,83.0515701 62.7458244,83.0012384 62.87,83 L67.54,83 C67.8707312,82.9979431 68.1871671,82.8648962 68.42,82.63 L74,77 L74.77,77.77 C75.6003933,78.5936667 76.9396067,78.5936667 77.77,77.77 L79.48,76.06 L70.01,73.52 C69.6220406,73.4182768 69.2736266,73.2022601 69.01,72.9 L71.22,70.69 C71.0072938,70.4560781 70.8530766,70.1750601 70.77,69.87 L67,55.76 C66.7913144,55.0466422 66.9954299,54.2763951 67.53,53.76 L77.92,43.46 C78.4363951,42.9254299 79.2066422,42.7213144 79.92,42.93 L94,46.71 C94.3050601,46.7930766 94.5860781,46.9472938 94.82,47.16 L97,45 C96.7706541,44.7873487 96.5024131,44.6209714 96.21,44.51 Z" id="Path" fill="#EAEAEA"></path>
        </g>
        <circle id="Oval" fill="#000000" style="mix-blend-mode: color;" cx="51" cy="52" r="50"></circle>
    </g>
</svg>