<?xml version="1.0" encoding="utf-8"?>
<!-- Generator: Adobe Illustrator 23.0.4, SVG Export Plug-In . SVG Version: 6.00 Build 0)  -->
<svg version="1.1" id="Logos" xmlns="http://www.w3.org/2000/svg" xmlns:xlink="http://www.w3.org/1999/xlink" x="0px" y="0px"
	 viewBox="0 0 175.607208 27.333334" style="enable-background:new 0 0 175.607208 27.333334;" xml:space="preserve">
<style type="text/css">
	.st0{fill:#FFFFFF;}
	.st1{fill:#EE0000;}
</style>
<title>Logo-Red_Hat-Product Logo copy 2-RGB</title>
<g>
	<g>
		<path class="st0" d="M25.335354,18.155369v5.433737h-0.934038v-6.67301h1.334602l2.097231,4.261377l2.088066-4.261377h1.3346
			v6.67301h-0.944118v-5.443819L27.8249,23.112461L25.335354,18.155369z"/>
		<path class="st0" d="M34.802227,18.641178c1.392654,0.003042,2.519154,1.134478,2.516109,2.527132
			c-0.00304,1.392653-1.134476,2.519154-2.527126,2.516111c-1.392654-0.003042-2.519157-1.134476-2.516113-2.527128
			c0-0.000301,0-0.000603,0-0.000902c-0.014332-1.374865,1.088596-2.50103,2.463459-2.515364
			C34.759781,18.640806,34.781006,18.640858,34.802227,18.641178z M34.802227,19.479887
			c-0.887291,0-1.592175,0.733299-1.592175,1.678335c0,0.945038,0.695717,1.687502,1.592175,1.687502
			c0.896454,0,1.591255-0.744297,1.591255-1.687502s-0.70488-1.678333-1.591255-1.678333V19.479887z"/>
		<path class="st0" d="M40.617275,23.665184c-0.526741,0.003782-1.039894-0.167055-1.459263-0.485809v0.409731h-0.943203v-6.67301
			l0.953289-0.209906v2.474878c0.413918-0.345959,0.938187-0.531992,1.477592-0.524307
			c1.382267,0,2.450134,1.105446,2.450134,2.497795S42.032543,23.665184,40.617275,23.665184z M39.168098,20.061943v2.211809
			c0.349171,0.367649,0.836823,0.57156,1.343769,0.56189c0.944118,0,1.649918-0.724131,1.649918-1.668251
			c0-0.962454-0.724129-1.67742-1.649918-1.67742C39.949978,19.489971,39.482498,19.698961,39.168098,20.061943z"/>
		<path class="st0" d="M43.876785,17.363407c0.002007-0.325539,0.265678-0.588804,0.591221-0.590305
			c0.326271,0.012856,0.580345,0.287769,0.56749,0.614038c-0.012146,0.308245-0.259243,0.555344-0.56749,0.567488
			C44.142109,17.953123,43.878288,17.689304,43.876785,17.363407z M44.944649,23.589106h-0.953285v-4.852596h0.953285V23.589106z"/>
		<path class="st0" d="M47.003384,23.589106h-0.953285v-6.67301l0.953285-0.209906V23.589106z"/>
		<path class="st0" d="M50.330723,18.660429c1.334602,0,2.344719,1.105446,2.344719,2.535378v0.274986h-3.832397
			c0.122585,0.808157,0.822506,1.402052,1.639835,1.391434c0.447189,0.009586,0.883213-0.140196,1.230106-0.422565
			l0.609558,0.601305c-0.529224,0.430872-1.195007,0.658436-1.877243,0.641634c-1.430843,0-2.545456-1.099945-2.545456-2.516127
			C47.898922,19.765875,48.957623,18.660429,50.330723,18.660429z M48.853127,20.75766h2.879112
			c-0.133831-0.74338-0.714966-1.29702-1.420765-1.29702C49.568092,19.46064,48.998871,19.995029,48.853127,20.75766
			L48.853127,20.75766z"/>
		<path class="st1" d="M15.267177,11.256871c1.146695,0,2.805781-0.236488,2.805781-1.600422
			c0.003428-0.105265-0.006115-0.210552-0.028416-0.313485L17.36166,6.376775C17.204,5.72414,17.06559,5.428071,15.919812,4.855182
			c-0.891874-0.455561-2.828697-1.206275-3.402502-1.206275c-0.533474,0-0.69205,0.691133-1.324519,0.691133
			c-0.612304,0-1.066948-0.513309-1.639837-0.513309c-0.549973,0-0.908372,0.374898-1.185192,1.145778
			c0,0-0.770878,2.174228-0.869874,2.489545c-0.016353,0.057807-0.023772,0.117775-0.022,0.177825
			C7.475889,8.485006,10.805977,11.256871,15.267177,11.256871 M18.250782,10.210089
			c0.158575,0.750714,0.158575,0.829543,0.158575,0.928538c0,1.283271-1.442762,1.995486-3.339253,1.995486
			c-4.294374-0.000916-8.045193-2.509711-8.045193-4.168797c-0.000248-0.231065,0.046858-0.45973,0.13841-0.671885
			c-1.541759,0.077913-3.537245,0.354733-3.537245,2.112815c0,2.885526,6.837084,6.442019,12.250652,6.442019
			c4.150466,0,5.197249-1.877242,5.197249-3.359421c0-1.165943-1.008286-2.489545-2.825947-3.279675"/>
		<path d="M18.248034,10.209172c0.158575,0.750713,0.158575,0.829543,0.158575,0.928537
			c0,1.283272-1.442764,1.995487-3.339256,1.995487c-4.291625,0-8.042442-2.508795-8.042442-4.167881
			c-0.000248-0.231065,0.046858-0.45973,0.13841-0.671885L7.498805,7.46297C7.482234,7.520436,7.474506,7.58009,7.475889,7.639879
			c0,0.845125,3.330089,3.616991,7.791288,3.616991c1.146695,0,2.805781-0.236488,2.805781-1.600422
			c0.003428-0.105265-0.006115-0.210552-0.028416-0.313485L18.248034,10.209172z"/>
		<path class="st0" d="M56.720493,12.10933c0,1.089864,0.655388,1.619671,1.850662,1.619671
			c0.368008-0.009162,0.733723-0.060836,1.089863-0.153993v-1.263103c-0.227627,0.072137-0.465187,0.108018-0.703964,0.106328
			c-0.492226,0-0.674633-0.153993-0.674633-0.616887v-1.93774h1.426266V8.562002h-1.426266v-1.64992l-1.558258,0.337317v1.312603
			h-1.033951v1.301603h1.0312L56.720493,12.10933z M51.862396,12.138662c0-0.337317,0.338234-0.501392,0.848793-0.501392
			c0.312073,0.001814,0.622833,0.040583,0.925785,0.115494v0.655385c-0.297737,0.162609-0.632397,0.245643-0.971615,0.241072
			c-0.500481,0-0.800209-0.192491-0.800209-0.510558 M52.341793,13.74825c0.549973,0,0.993622-0.115495,1.407932-0.395063v0.308902
			h1.541759v-3.268675c0-1.24294-0.837795-1.924907-2.235645-1.924907c-0.780964,0-1.552757,0.183325-2.383217,0.559139
			l0.559139,1.147611c0.597637-0.251154,1.099945-0.405147,1.542675-0.405147c0.641636,0,0.973454,0.250238,0.973454,0.761713
			v0.250237c-0.377766-0.097787-0.766563-0.146464-1.156776-0.144826c-1.311687,0-2.101814,0.549973-2.101814,1.533509
			c0,0.896456,0.713135,1.580256,1.850658,1.580256 M43.866703,13.664837h1.658169v-2.644454h2.776451v2.641706h1.658169V6.913915
			h-1.654507V9.50704h-2.776443V6.913915h-1.658173L43.866703,13.664837z M37.552094,11.107462
			c0-0.733297,0.578388-1.292437,1.340099-1.292437c0.396919-0.008498,0.782459,0.13289,1.079781,0.395981v1.779162
			c-0.291531,0.273587-0.680237,0.419436-1.079781,0.405148c-0.751633,0-1.340099-0.55914-1.340099-1.291521 M39.991222,13.658422
			h1.542675V6.576598l-1.558258,0.337317v1.918491c-0.396683-0.224886-0.845631-0.341233-1.301605-0.337317
			c-1.484013,0-2.650871,1.146694-2.650871,2.612371c-0.019249,1.429989,1.124378,2.604828,2.554371,2.624076
			c0.015057,0.000203,0.030113,0.000275,0.045174,0.000215c0.491745,0.002344,0.971321-0.152804,1.368515-0.442729V13.658422z
			 M32.915817,9.744445c0.491306,0,0.905621,0.318068,1.069698,0.809378h-2.127478
			c0.15399-0.510559,0.539888-0.809378,1.06053-0.809378 M30.284197,11.116628c0,1.484928,1.214523,2.641706,2.77553,2.641706
			c0.857956,0,1.484928-0.231905,2.131145-0.771796l-1.032116-0.916621c-0.241074,0.251154-0.597637,0.385898-1.021118,0.385898
			c-0.545105,0.015353-1.043457-0.306317-1.253939-0.809378h3.634405v-0.384981c0-1.619671-1.088947-2.785615-2.573875-2.785615
			c-1.44615-0.02182-2.636177,1.13283-2.657997,2.578982c-0.000313,0.0206-0.00038,0.041204-0.000204,0.061806 M27.594828,8.331014
			c0.549973,0,0.857956,0.346483,0.857956,0.761713S28.143883,9.85444,27.594828,9.85444h-1.63892V8.331014H27.594828z
			 M24.294987,13.662089h1.658171v-2.458382h1.262188l1.273188,2.458381h1.85066l-1.484928-2.699451
			c0.772047-0.313988,1.275671-1.065796,1.272272-1.89924c0-1.214525-0.954205-2.149479-2.383217-2.149479h-3.445581
			L24.294987,13.662089z"/>
	</g>
	<rect x="70.150093" y="5.016667" class="st0" width="0.900002" height="17.300001"/>
	<g>
		<path class="st0" d="M80.682137,16.431831V8.889175h2.489319c0.567169,0,1.095406,0.095406,1.583664,0.285516
			c0.488251,0.19046,0.909157,0.451072,1.261314,0.781134c0.352158,0.330763,0.625748,0.727468,0.823578,1.190816
			c0.197823,0.463348,0.296036,0.968086,0.296036,1.513863c0,0.546478-0.098213,1.050865-0.296036,1.513863
			c-0.19783,0.463699-0.470016,0.860756-0.817963,1.191168c-0.349358,0.330412-0.767456,0.590672-1.255707,0.780783
			c-0.488953,0.190811-1.020348,0.285515-1.594887,0.285515H80.682137z M83.2146,9.643301h-1.702576v6.034406H83.2146
			c0.430725,0,0.836548-0.077167,1.217468-0.2315c0.380569-0.154332,0.707474-0.366189,0.981064-0.63557
			c0.272186-0.269381,0.488251-0.58927,0.645393-0.958966c0.158539-0.370399,0.237114-0.766752,0.237114-1.191168
			c0-0.423714-0.078575-0.820769-0.237114-1.190816c-0.157143-0.369698-0.373207-0.689587-0.645393-0.958967
			c-0.27359-0.269381-0.600494-0.480886-0.981064-0.63557C84.051147,9.720819,83.645325,9.643301,83.2146,9.643301z"/>
		<path class="st0" d="M92.836182,15.860801c-0.301651,0.223081-0.616631,0.39004-0.942833,0.50088
			c-0.326904,0.11154-0.684677,0.16696-1.072609,0.16696c-0.387939,0-0.752724-0.071554-1.093658-0.215364
			c-0.340935-0.143108-0.635216-0.340935-0.882851-0.592778c-0.248337-0.251141-0.444061-0.547179-0.587166-0.888815
			C88.113251,14.490748,88.041,14.122455,88.041,13.727504c0-0.387937,0.070145-0.750619,0.210449-1.088046
			c0.140305-0.338128,0.328308-0.632413,0.565422-0.883904c0.237106-0.251493,0.518768-0.448968,0.845673-0.592777
			c0.326904-0.14381,0.673447-0.215364,1.039635-0.215364c0.359177,0,0.695198,0.071554,1.007378,0.215364
			c0.312874,0.143809,0.582253,0.341285,0.808136,0.592777c0.226593,0.251492,0.406181,0.545776,0.538765,0.883904
			c0.133286,0.337427,0.199928,0.700109,0.199928,1.088046v0.247633h-4.428291
			c0.057526,0.531746,0.276398,0.973699,0.656967,1.325156c0.380219,0.352159,0.836197,0.528238,1.367943,0.528238
			c0.280609,0,0.553497-0.042792,0.819366-0.129078c0.265175-0.086287,0.488251-0.208349,0.667839-0.366189L92.836182,15.860801z
			 M90.681137,11.64752c-0.467209,0-0.871277,0.158191-1.212212,0.474222c-0.341286,0.316031-0.547531,0.721855-0.619789,1.217825
			h3.609634c-0.071556-0.474222-0.274994-0.874785-0.608917-1.201691C91.515938,11.810971,91.125893,11.64752,90.681137,11.64752z"
			/>
		<path class="st0" d="M95.863907,16.431831l-2.338142-5.398485h0.883209l1.842865,4.364457l1.842171-4.364457h0.851639
			l-2.327614,5.398485H95.863907z"/>
		<path class="st0" d="M104.010559,15.860801c-0.301643,0.223081-0.616623,0.39004-0.942825,0.50088
			c-0.326904,0.11154-0.684677,0.16696-1.072617,0.16696c-0.387932,0-0.752724-0.071554-1.093658-0.215364
			c-0.340935-0.143108-0.635567-0.340935-0.883202-0.592778c-0.248337-0.251141-0.444054-0.547179-0.587166-0.888815
			c-0.143806-0.340935-0.216064-0.709229-0.216064-1.104179c0-0.387937,0.070152-0.750619,0.210457-1.088046
			c0.140297-0.338128,0.328308-0.632413,0.565414-0.883904c0.237114-0.251493,0.519119-0.448968,0.846024-0.592777
			c0.326904-0.14381,0.673454-0.215364,1.039642-0.215364c0.359177,0,0.695198,0.071554,1.00737,0.215364
			c0.312874,0.143809,0.582253,0.341285,0.808144,0.592777c0.226585,0.251492,0.406174,0.545776,0.538757,0.883904
			c0.133293,0.337427,0.199936,0.700109,0.199936,1.088046v0.247633h-4.42865
			c0.057526,0.531746,0.276398,0.973699,0.657318,1.325156c0.380219,0.352159,0.836205,0.528238,1.36795,0.528238
			c0.280602,0,0.55349-0.042792,0.819366-0.129078c0.265167-0.086287,0.488251-0.208349,0.667839-0.366189L104.010559,15.860801z
			 M101.855522,11.64752c-0.467209,0-0.871284,0.158191-1.212219,0.474222c-0.341637,0.316031-0.547874,0.721855-0.620132,1.217825
			h3.609978c-0.071556-0.474222-0.274994-0.874785-0.60891-1.201691C102.690315,11.810971,102.300278,11.64752,101.855522,11.64752z
			"/>
		<path class="st0" d="M106.337479,8.706081v7.72575h-0.796921V8.889175L106.337479,8.706081z"/>
		<path class="st0" d="M107.447266,13.727504c0-0.387937,0.072258-0.754127,0.216072-1.09927
			c0.143105-0.344792,0.338829-0.642937,0.587166-0.894427c0.247627-0.251493,0.540161-0.448968,0.878288-0.592778
			c0.337425-0.143459,0.696602-0.215364,1.077522-0.215364c0.380219,0,0.737991,0.071904,1.071915,0.215364
			c0.333916,0.14381,0.625046,0.341286,0.872681,0.592778c0.247627,0.251492,0.443352,0.549634,0.587158,0.894427
			c0.143814,0.345143,0.21537,0.711333,0.21537,1.09927c0,0.394951-0.071556,0.764647-0.21537,1.109792
			c-0.143806,0.344441-0.339531,0.643286-0.587158,0.894427c-0.247635,0.251141-0.538765,0.448968-0.872681,0.592778
			c-0.333923,0.143108-0.691696,0.215363-1.071915,0.215363c-0.38092,0-0.740097-0.072254-1.077522-0.215363
			c-0.338127-0.14381-0.630661-0.341638-0.878288-0.592778c-0.248337-0.251142-0.444061-0.549986-0.587166-0.894427
			C107.519524,14.492151,107.447266,14.122455,107.447266,13.727504z M110.206314,15.828531
			c0.272888,0,0.52964-0.054016,0.770264-0.161347c0.240616-0.108033,0.448967-0.256754,0.625046-0.447565
			c0.175377-0.190109,0.314278-0.412489,0.414589-0.667839c0.100319-0.254649,0.150826-0.529641,0.150826-0.824276
			c0-0.294636-0.050507-0.569628-0.150826-0.824277c-0.100311-0.255351-0.239212-0.475976-0.414589-0.66293
			c-0.176079-0.186602-0.38443-0.33392-0.625046-0.441952c-0.240623-0.107682-0.497375-0.161348-0.770264-0.161348
			c-0.27359,0-0.530342,0.053666-0.770958,0.161348c-0.240623,0.108032-0.448967,0.25535-0.625053,0.441952
			c-0.176079,0.186954-0.315674,0.407578-0.420204,0.66293c-0.103821,0.254649-0.155731,0.529641-0.155731,0.824277
			c0,0.294635,0.049805,0.569627,0.150826,0.824276c0.100311,0.25535,0.23851,0.47773,0.414589,0.667839
			c0.176079,0.190811,0.385834,0.339532,0.630661,0.447565C109.674568,15.774515,109.932724,15.828531,110.206314,15.828531z"/>
		<path class="st0" d="M114.063225,18.640892v-7.607545h0.786392v0.581903c0.230095-0.222379,0.493866-0.389689,0.792007-0.500879
			c0.298141-0.111541,0.615929-0.16696,0.953354-0.16696c0.38092,0,0.736588,0.071554,1.067001,0.215364
			c0.330406,0.143809,0.617325,0.339531,0.862152,0.587165c0.244133,0.247985,0.43634,0.54262,0.575943,0.883905
			c0.140305,0.340935,0.210457,0.705721,0.210457,1.093657c0,0.387936-0.070152,0.754125-0.210457,1.099269
			c-0.139603,0.344442-0.33181,0.641182-0.575943,0.888815c-0.244827,0.247634-0.533844,0.443356-0.867767,0.587166
			c-0.333916,0.14381-0.690987,0.215364-1.071907,0.215364c-0.316383,0-0.621544-0.054016-0.916176-0.161348
			c-0.29464-0.108032-0.564018-0.262365-0.808144-0.463699v2.747822H114.063225z M116.519913,11.64752
			c-0.338127,0-0.652405,0.066644-0.942825,0.19958c-0.29113,0.132936-0.53035,0.317785-0.716949,0.554896v2.672409
			c0.1866,0.230096,0.427223,0.411086,0.721855,0.544374c0.29464,0.132586,0.607513,0.199229,0.93792,0.199229
			c0.567528,0,1.043152-0.199229,1.427582-0.59839c0.38443-0.398458,0.576637-0.892323,0.576637-1.481593
			c0-0.294635-0.052612-0.568926-0.156433-0.824277c-0.104523-0.254648-0.246231-0.475975-0.425819-0.662578
			c-0.179588-0.186953-0.391441-0.33427-0.635567-0.441953S116.79982,11.64752,116.519913,11.64752z"/>
		<path class="st0" d="M124.978745,15.860801c-0.301651,0.223081-0.616631,0.39004-0.942833,0.50088
			c-0.326904,0.11154-0.684677,0.16696-1.072609,0.16696c-0.387939,0-0.752724-0.071554-1.093658-0.215364
			c-0.340935-0.143108-0.635567-0.340935-0.883202-0.592778c-0.248337-0.251141-0.444061-0.547179-0.587166-0.888815
			c-0.143814-0.340935-0.216064-0.709229-0.216064-1.104179c0-0.387937,0.070152-0.750619,0.210449-1.088046
			c0.140305-0.338128,0.328308-0.632413,0.565422-0.883904c0.237106-0.251493,0.519119-0.448968,0.846024-0.592777
			c0.326904-0.14381,0.673447-0.215364,1.039642-0.215364c0.359169,0,0.695198,0.071554,1.00737,0.215364
			c0.312874,0.143809,0.582253,0.341285,0.808136,0.592777c0.226593,0.251492,0.406181,0.545776,0.538765,0.883904
			c0.133286,0.337427,0.199928,0.700109,0.199928,1.088046v0.247633h-4.428642
			c0.057526,0.531746,0.276398,0.973699,0.657318,1.325156c0.380219,0.352159,0.836205,0.528238,1.36795,0.528238
			c0.280602,0,0.55349-0.042792,0.819359-0.129078c0.265175-0.086287,0.488258-0.208349,0.667839-0.366189L124.978745,15.860801z
			 M122.8237,11.64752c-0.467209,0-0.871277,0.158191-1.212212,0.474222c-0.341637,0.316031-0.547882,0.721855-0.62014,1.217825
			h3.609985c-0.071556-0.474222-0.274994-0.874785-0.608917-1.201691C123.658501,11.810971,123.268463,11.64752,122.8237,11.64752z"
			/>
		<path class="st0" d="M126.508743,16.431831v-5.398485h0.796913v0.764998c0.157845-0.279903,0.366898-0.497372,0.625053-0.651705
			c0.25885-0.154332,0.553497-0.23185,0.883896-0.23185c0.100327,0,0.190109,0.005611,0.269394,0.016135
			c0.078568,0.010873,0.157837,0.030867,0.237106,0.059278v0.732729c-0.094009-0.028411-0.187302-0.051911-0.280609-0.0698
			c-0.093292-0.017888-0.1866-0.027008-0.279907-0.027008c-0.330414,0-0.621536,0.095405-0.872673,0.285516
			c-0.251846,0.19046-0.445465,0.465102-0.58226,0.824627v3.695565H126.508743z"/>
		<path class="st0" d="M136.281509,15.785739c0.467194,0,0.912659-0.091898,1.33638-0.274993
			c0.423706-0.183094,0.779373-0.43634,1.066986-0.759737l0.538773,0.560508c-0.373917,0.387937-0.819366,0.690989-1.33638,0.910563
			c-0.517014,0.21887-1.059982,0.328306-1.626816,0.328306c-0.546478,0-1.057877-0.100315-1.535599-0.301649
			c-0.477737-0.200632-0.893036-0.475625-1.244492-0.824277c-0.352158-0.34795-0.629257-0.76114-0.82988-1.23887
			c-0.20134-0.47773-0.301651-0.986325-0.301651-1.525087c0-0.538761,0.100311-1.047008,0.301651-1.524736
			c0.200623-0.47773,0.477722-0.89057,0.82988-1.239221c0.351456-0.348301,0.766754-0.622943,1.244492-0.824277
			c0.477722-0.200983,0.98912-0.30165,1.535599-0.30165c0.581558,0,1.13295,0.109787,1.653473,0.328658
			c0.521225,0.219223,0.964569,0.522627,1.330765,0.910563l-0.549286,0.581904
			c-0.294632-0.330412-0.659424-0.58892-1.093658-0.775872c-0.434937-0.186602-0.88179-0.280254-1.341293-0.280254
			c-0.431427,0-0.835495,0.081025-1.212204,0.242373c-0.377411,0.161698-0.702911,0.380921-0.9758,0.657317
			c-0.272888,0.276746-0.488251,0.607158-0.646103,0.991587c-0.158539,0.384078-0.237106,0.795514-0.237106,1.233608
			c0,0.438446,0.078568,0.849531,0.237106,1.233959c0.157852,0.384429,0.37532,0.714841,0.651703,0.991237
			c0.276398,0.276396,0.603302,0.495969,0.980713,0.657316C135.435486,15.704364,135.843765,15.785739,136.281509,15.785739z"/>
		<path class="st0" d="M139.869034,13.727504c0-0.387937,0.07225-0.754127,0.216064-1.09927
			c0.143112-0.344792,0.338837-0.642937,0.587173-0.894427c0.247635-0.251493,0.540161-0.448968,0.878281-0.592778
			c0.337433-0.143459,0.696609-0.215364,1.07753-0.215364c0.380219,0,0.737991,0.071904,1.071915,0.215364
			c0.333908,0.14381,0.625046,0.341286,0.872681,0.592778c0.247635,0.251492,0.443344,0.549634,0.587158,0.894427
			c0.143814,0.345143,0.215363,0.711333,0.215363,1.09927c0,0.394951-0.071548,0.764647-0.215363,1.109792
			c-0.143814,0.344441-0.339523,0.643286-0.587158,0.894427c-0.247635,0.251141-0.538773,0.448968-0.872681,0.592778
			c-0.333923,0.143108-0.691696,0.215363-1.071915,0.215363c-0.38092,0-0.740097-0.072254-1.07753-0.215363
			c-0.33812-0.14381-0.630646-0.341638-0.878281-0.592778c-0.248337-0.251142-0.444061-0.549986-0.587173-0.894427
			C139.941284,14.492151,139.869034,14.122455,139.869034,13.727504z M142.628082,15.828531
			c0.272888,0,0.529633-0.054016,0.770264-0.161347c0.240616-0.108033,0.448959-0.256754,0.625046-0.447565
			c0.175369-0.190109,0.31427-0.412489,0.414597-0.667839c0.100311-0.254649,0.150818-0.529641,0.150818-0.824276
			c0-0.294636-0.050507-0.569628-0.150818-0.824277c-0.100327-0.255351-0.239227-0.475976-0.414597-0.66293
			c-0.176086-0.186602-0.38443-0.33392-0.625046-0.441952c-0.240631-0.107682-0.497375-0.161348-0.770264-0.161348
			c-0.27359,0-0.53035,0.053666-0.770966,0.161348c-0.240616,0.108032-0.448959,0.25535-0.625046,0.441952
			c-0.176071,0.186954-0.315674,0.407578-0.420212,0.66293c-0.103821,0.254649-0.155731,0.529641-0.155731,0.824277
			c0,0.294635,0.049805,0.569627,0.150833,0.824276c0.100311,0.25535,0.23851,0.47773,0.414581,0.667839
			c0.176086,0.190811,0.385834,0.339532,0.630661,0.447565C142.096329,15.774515,142.354492,15.828531,142.628082,15.828531z"/>
		<path class="st0" d="M146.485687,16.431831v-5.398485h0.796921v0.635921c0.208359-0.244126,0.455994-0.429325,0.743607-0.554896
			c0.287613-0.12557,0.606812-0.188706,0.958969-0.188706c0.610306,0,1.109787,0.193968,1.497726,0.581904
			c0.387939,0.387936,0.58226,0.89092,0.58226,1.508601v3.415662h-0.787109V13.17822
			c0-0.474223-0.136093-0.851636-0.408981-1.131891c-0.27359-0.280253-0.639771-0.420205-1.099258-0.420205
			c-0.323395,0-0.612427,0.071905-0.867081,0.215364c-0.255341,0.143809-0.462296,0.348651-0.620132,0.614173v3.976171H146.485687z"
			/>
		<path class="st0" d="M151.851562,15.688229l0.485443-0.517014c0.244125,0.230096,0.518417,0.407578,0.82428,0.533149
			c0.305145,0.126272,0.615219,0.188706,0.93161,0.188706c0.431427,0,0.782883-0.089793,1.055771-0.269381
			c0.27359-0.179586,0.409683-0.412489,0.409683-0.700109c0-0.230096-0.080673-0.411086-0.24202-0.544374
			c-0.162048-0.132586-0.415298-0.224483-0.759735-0.274992l-0.937927-0.129079
			c-0.538757-0.078569-0.939331-0.238514-1.200989-0.479133c-0.26236-0.240618-0.393555-0.56612-0.393555-0.975452
			c0-0.452826,0.190109-0.828135,0.57103-1.126277c0.38092-0.297792,0.865677-0.446863,1.454941-0.446863
			c0.387939,0,0.755524,0.057524,1.104187,0.172221c0.348648,0.115047,0.688171,0.294635,1.018585,0.538761l-0.420197,0.538761
			c-0.301651-0.200983-0.594894-0.351809-0.878296-0.452476c-0.284119-0.100667-0.573135-0.150825-0.867767-0.150825
			c-0.366196,0-0.666443,0.082427-0.899338,0.247633c-0.233612,0.165557-0.350067,0.380921-0.350067,0.646443
			c0,0.230095,0.078583,0.40828,0.23642,0.533851c0.158539,0.125571,0.413193,0.213962,0.76535,0.263769l0.93721,0.129078
			c0.538773,0.072256,0.942841,0.232201,1.212219,0.479835c0.269379,0.247633,0.404068,0.576642,0.404068,0.985623
			c0,0.230096-0.05542,0.447565-0.166962,0.652407s-0.265869,0.38092-0.462997,0.527536
			c-0.19783,0.147318-0.429321,0.262365-0.69519,0.345144c-0.265884,0.082077-0.553497,0.123466-0.862167,0.123466
			c-0.44545,0-0.863556-0.07366-1.255005-0.220276C152.478714,16.161047,152.139175,15.954102,151.851562,15.688229z"/>
		<path class="st0" d="M157.012573,13.727504c0-0.387937,0.072266-0.754127,0.21608-1.09927
			c0.143097-0.344792,0.338821-0.642937,0.587158-0.894427c0.247635-0.251493,0.540161-0.448968,0.878296-0.592778
			c0.337418-0.143459,0.696594-0.215364,1.077515-0.215364c0.380219,0,0.737991,0.071904,1.071915,0.215364
			c0.333923,0.14381,0.625046,0.341286,0.872681,0.592778c0.247635,0.251492,0.443359,0.549634,0.587158,0.894427
			c0.143814,0.345143,0.215378,0.711333,0.215378,1.09927c0,0.394951-0.071564,0.764647-0.215378,1.109792
			c-0.143799,0.344441-0.339523,0.643286-0.587158,0.894427c-0.247635,0.251141-0.538757,0.448968-0.872681,0.592778
			c-0.333923,0.143108-0.691696,0.215363-1.071915,0.215363c-0.38092,0-0.740097-0.072254-1.077515-0.215363
			c-0.338135-0.14381-0.630661-0.341638-0.878296-0.592778c-0.248337-0.251142-0.444061-0.549986-0.587158-0.894427
			C157.084839,14.492151,157.012573,14.122455,157.012573,13.727504z M159.771622,15.828531
			c0.272888,0,0.529648-0.054016,0.770264-0.161347c0.240616-0.108033,0.448975-0.256754,0.625046-0.447565
			c0.175385-0.190109,0.314285-0.412489,0.414597-0.667839c0.100311-0.254649,0.150818-0.529641,0.150818-0.824276
			c0-0.294636-0.050507-0.569628-0.150818-0.824277c-0.100311-0.255351-0.239212-0.475976-0.414597-0.66293
			c-0.176071-0.186602-0.38443-0.33392-0.625046-0.441952c-0.240616-0.107682-0.497375-0.161348-0.770264-0.161348
			c-0.27359,0-0.530334,0.053666-0.77095,0.161348c-0.240631,0.108032-0.448975,0.25535-0.625061,0.441952
			c-0.176071,0.186954-0.315674,0.407578-0.420197,0.66293c-0.103821,0.254649-0.155731,0.529641-0.155731,0.824277
			c0,0.294635,0.049805,0.569627,0.150818,0.824276c0.100311,0.25535,0.23851,0.47773,0.414597,0.667839
			c0.176071,0.190811,0.385834,0.339532,0.630661,0.447565C159.239883,15.774515,159.498032,15.828531,159.771622,15.828531z"/>
		<path class="st0" d="M164.425461,8.706081v7.72575h-0.796921V8.889175L164.425461,8.706081z"/>
		<path class="st0" d="M170.33078,15.860801c-0.301651,0.223081-0.616623,0.39004-0.942825,0.50088
			c-0.326904,0.11154-0.684677,0.16696-1.072617,0.16696s-0.752716-0.071554-1.093658-0.215364
			c-0.340927-0.143108-0.635574-0.340935-0.883194-0.592778c-0.248337-0.251141-0.444061-0.547179-0.587173-0.888815
			c-0.143814-0.340935-0.216064-0.709229-0.216064-1.104179c0-0.387937,0.070145-0.750619,0.210449-1.088046
			c0.140305-0.338128,0.328308-0.632413,0.56543-0.883904c0.237106-0.251493,0.519104-0.448968,0.846008-0.592777
			c0.32692-0.14381,0.673462-0.215364,1.039642-0.215364c0.359177,0,0.695206,0.071554,1.00737,0.215364
			c0.312881,0.143809,0.58226,0.341285,0.808151,0.592777c0.226578,0.251492,0.406174,0.545776,0.538757,0.883904
			c0.133286,0.337427,0.199936,0.700109,0.199936,1.088046v0.247633h-4.42865
			c0.057526,0.531746,0.276398,0.973699,0.657318,1.325156c0.380219,0.352159,0.836197,0.528238,1.36795,0.528238
			c0.280609,0,0.553497-0.042792,0.819366-0.129078c0.265167-0.086287,0.488251-0.208349,0.667831-0.366189L170.33078,15.860801z
			 M168.175735,11.64752c-0.467209,0-0.871277,0.158191-1.212204,0.474222c-0.341644,0.316031-0.547882,0.721855-0.620148,1.217825
			h3.609985c-0.071548-0.474222-0.274994-0.874785-0.608917-1.201691C169.010544,11.810971,168.620499,11.64752,168.175735,11.64752
			z"/>
	</g>
</g>
</svg>