<?xml version="1.0" encoding="UTF-8"?>
<svg width="102px" height="103px" viewBox="0 0 102 103" version="1.1" xmlns="http://www.w3.org/2000/svg" xmlns:xlink="http://www.w3.org/1999/xlink">
    <!-- Generator: Sketch 53.2 (72643) - https://sketchapp.com -->
    <title>Artboard</title>
    <desc>Created with Sketch.</desc>
    <g id="Artboard" stroke="none" stroke-width="1" fill="none" fill-rule="evenodd">
        <g id="push-b&amp;w" transform="translate(1.000000, 2.000000)" fill-rule="nonzero">
            <circle id="Oval" fill="#D71E00" cx="50" cy="50" r="50"></circle>
            <path d="M85.36,14.64 C104.888789,34.1687888 104.888789,65.8312112 85.36,85.36 C65.8312112,104.888789 34.1687888,104.888789 14.64,85.36 L85.36,14.64 Z" id="Path" fill="#C21A00"></path>
            <path d="M48.35,33.26 C48.3582685,32.3252184 48.4385057,31.3924611 48.59,30.47 L28.67,30.47 C27.4986636,30.4673439 26.3743921,30.9307947 25.5451926,31.7581182 C24.7159931,32.5854417 24.249997,33.7086606 24.25,34.88 L24.25,67 L50.14,41.11 C48.9670074,38.6590002 48.3554931,35.9772194 48.35,33.26 Z" id="Path" fill="#FFFFFF"></path>
            <path d="M50.14,41.11 L24.25,67 L24.25,71.18 C24.249997,72.3513394 24.7159931,73.4745583 25.5451926,74.3018818 C26.3743921,75.1292053 27.4986636,75.5926561 28.67,75.59 L65,75.59 C67.4355757,75.59 69.41,73.6155757 69.41,71.18 L69.41,51.4 C68.5297927,51.5360804 67.6406564,51.6062753 66.75,51.61 C59.6472127,51.6216887 53.1763005,47.5311061 50.14,41.11 Z" id="Path" fill="#EAEAEA"></path>
            <path d="M50.14,41.11 L60.78,30.47 L48.59,30.47 C47.9854693,34.0915339 48.5273749,37.8114541 50.14,41.11 Z" id="Path" fill="#EAEAEA"></path>
            <path d="M65,30.47 L60.78,30.47 L50.14,41.11 C53.1701273,47.5180289 59.6216652,51.6062092 66.71,51.61 C67.6006564,51.6062753 68.4897927,51.5360804 69.37,51.4 L69.37,34.88 C69.3700996,32.4599601 67.4199404,30.4919505 65,30.47 Z" id="Path" fill="#CDCDCD"></path>
            <circle id="Oval" fill="#FFFFFF" cx="66.71" cy="33.26" r="14.15"></circle>
            <path d="M61.68,39.07 C61.666262,38.1141941 61.832487,37.164337 62.17,36.27 C62.4695098,35.5135077 62.8955941,34.813512 63.43,34.2 C63.9663192,33.6067247 64.5861525,33.0946884 65.27,32.68 C65.9743029,32.2525497 66.7058717,31.8717331 67.46,31.54 C67.8773589,31.3823922 68.2559243,31.1368362 68.57,30.82 C68.7622974,30.6008748 68.8719543,30.3214265 68.88,30.03 C68.8652692,29.6832059 68.6919723,29.3624222 68.41,29.16 C67.9389188,28.8457698 67.373533,28.7044233 66.81,28.76 C66.1185238,28.752436 65.4344569,28.9029307 64.81,29.2 C64.2417783,29.4755144 63.7190621,29.8363572 63.26,30.27 L61.64,28.38 C62.2924066,27.7112489 63.0752591,27.1836744 63.94,26.83 C64.8300365,26.4731007 65.7810974,26.2930785 66.74,26.3 C67.956859,26.2212113 69.1666977,26.5368214 70.19,27.2 C71.0136589,27.849214 71.4629132,28.86378 71.39,29.91 C71.3964455,30.3580092 71.3288699,30.8040082 71.19,31.23 C71.0489108,31.5975273 70.842221,31.936363 70.58,32.23 C70.2887723,32.5509881 69.9518169,32.8272915 69.58,33.05 C69.1237552,33.3250436 68.6530784,33.5754036 68.17,33.8 C67.6781941,34.0124627 67.2005439,34.2562981 66.74,34.53 C66.3912092,34.7404337 66.0571077,34.9743048 65.74,35.23 C65.5065726,35.4315319 65.3013901,35.6636235 65.13,35.92 C64.9965597,36.1411016 64.8955305,36.3802041 64.83,36.63 L71.5,36.63 L71.5,39.06 L61.68,39.07 Z" id="Path" fill="#000000"></path>
        </g>
        <circle id="Oval" fill="#000000" style="mix-blend-mode: color;" cx="51" cy="52" r="50"></circle>
    </g>
</svg>