<?xml version="1.0" encoding="UTF-8"?>
<svg width="102px" height="103px" viewBox="0 0 102 103" version="1.1" xmlns="http://www.w3.org/2000/svg" xmlns:xlink="http://www.w3.org/1999/xlink">
    <!-- Generator: Sketch 53.2 (72643) - https://sketchapp.com -->
    <title>Artboard</title>
    <desc>Created with Sketch.</desc>
    <g id="Artboard" stroke="none" stroke-width="1" fill="none" fill-rule="evenodd">
        <g id="security-b&amp;w" transform="translate(1.000000, 2.000000)" fill-rule="nonzero">
            <circle id="Oval" fill="#D71E00" cx="50" cy="50" r="50"></circle>
            <path d="M85.36,14.64 C104.888789,34.1687888 104.888789,65.8312112 85.36,85.36 C65.8312112,104.888789 34.1687888,104.888789 14.64,85.36 L85.36,14.64 Z" id="Path" fill="#C21A00"></path>
            <path d="M78.47,28.76 L49.85,21.26 L49.85,25.88 L74.11,32.55 L74.11,32.68 C67.57,37 58.94,42.4 49.85,47.55 L49.85,59.94 C58.38,55.28 66.74,50.19 73.63,45.79 C72.14,62.86 66.63,72.13 49.85,78.38 L49.85,83 C74.22,73.92 78.47,59.23 78.47,28.76 Z" id="Path" fill="#FFFFFF"></path>
            <path d="M73.63,45.79 C66.74,50.19 58.38,55.28 49.85,59.94 L49.85,78.38 C66.61,72.13 72.14,62.86 73.63,45.79 Z" id="Path" fill="#CDCDCD"></path>
            <path d="M74.11,32.68 L74.11,32.55 L49.85,25.88 L49.85,47.55 C58.94,42.4 67.57,37 74.11,32.68 Z" id="Path" fill="#CDCDCD"></path>
            <path d="M49.84,78.38 C42.47,75.64 37.28,72.31 33.64,68 C34.72,67.53 35.81,67 36.91,66.52 L37.64,66.18 C38.89,65.59 40.14,64.99 41.4,64.36 L41.6,64.26 C42.92,63.6 44.24,62.93 45.6,62.26 L45.73,62.19 C47.11,61.46 48.5,60.72 49.87,59.97 L49.87,59.97 L49.87,47.55 L49.87,47.55 L48.87,48.09 L47,49.17 L45.77,49.85 L44,50.76 L42.72,51.44 L41.06,52.32 L39.83,53 L38.14,53.86 L36.9,54.48 L35.17,55.34 L34,55.88 L32.09,56.77 L31.09,57.22 C30.17,57.64 29.27,58.04 28.37,58.43 C26.14,51.72 25.51,43.32 25.51,32.55 L49.79,25.88 L49.79,25.88 L49.79,21.26 L49.79,21.26 L21.2,28.76 C21.2,59.24 25.45,73.92 49.84,83 L49.84,83 L49.84,78.38 Z" id="Path" fill="#EAEAEA"></path>
            <path d="M49.83,59.94 C48.46,60.69 47.07,61.43 45.69,62.16 L45.56,62.23 C44.24,62.92 42.92,63.59 41.56,64.23 L41.36,64.33 C40.1,64.96 38.85,65.56 37.6,66.15 L36.87,66.49 C35.77,67 34.68,67.49 33.6,67.97 C37.24,72.29 42.43,75.62 49.8,78.36 L49.8,78.36 L49.8,59.94 L49.8,59.94 L49.83,59.94 Z" id="Path" fill="#B7B7B7"></path>
            <path d="M25.56,32.55 C25.56,43.32 26.19,51.72 28.42,58.43 C29.32,58.04 30.22,57.64 31.14,57.22 L32.14,56.77 L34,55.88 L35.16,55.32 L36.89,54.46 L38.13,53.84 L39.83,53 L41.1,52.34 L42.76,51.46 L44,50.76 L45.68,49.85 L47,49.17 L48.92,48.1 L49.92,47.56 L49.92,47.56 L49.92,25.88 L49.92,25.88 L25.56,32.55 Z" id="Path" fill="#B7B7B7"></path>
        </g>
        <circle id="Oval" fill="#000000" style="mix-blend-mode: color;" cx="51" cy="52" r="50"></circle>
    </g>
</svg>