<svg xmlns="http://www.w3.org/2000/svg" viewBox="0 0 100 100"><defs><style>.cls-1{fill:#d71e00;}.cls-2{fill:#c21a00;}.cls-3{fill:#fff;}.cls-4{fill:#cdcdcd;}.cls-5{fill:#eaeaea;}.cls-6{fill:#b7b7b7;}</style></defs><title>producticons_0219_RGB_Mobile Security color</title><g id="Layer_1" data-name="Layer 1"><circle class="cls-1" cx="50" cy="50" r="50"/><path class="cls-2" d="M85.36,14.64A50,50,0,0,1,14.64,85.36Z"/><path class="cls-3" d="M78.47,28.76l-28.62-7.5v4.62l24.26,6.67v.13C67.57,37,58.94,42.4,49.85,47.55V59.94c8.53-4.66,16.89-9.75,23.78-14.15-1.49,17.07-7,26.34-23.78,32.59V83C74.22,73.92,78.47,59.23,78.47,28.76Z"/><path class="cls-4" d="M73.63,45.79c-6.89,4.4-15.25,9.49-23.78,14.15V78.38C66.61,72.13,72.14,62.86,73.63,45.79Z"/><path class="cls-4" d="M74.11,32.68v-.13L49.85,25.88V47.55C58.94,42.4,67.57,37,74.11,32.68Z"/><path class="cls-5" d="M49.84,78.38C42.47,75.64,37.28,72.31,33.64,68c1.08-.47,2.17-1,3.27-1.48l.73-.34c1.25-.59,2.5-1.19,3.76-1.82l.2-.1c1.32-.66,2.64-1.33,4-2l.13-.07c1.38-.73,2.77-1.47,4.14-2.22h0V47.55h0l-1,.54L47,49.17l-1.23.68L44,50.76l-1.28.68-1.66.88L39.83,53l-1.69.86-1.24.62-1.73.86L34,55.88l-1.91.89-1,.45c-.92.42-1.82.82-2.72,1.21-2.23-6.71-2.86-15.11-2.86-25.88l24.28-6.67h0V21.26h0L21.2,28.76c0,30.48,4.25,45.16,28.64,54.24h0V78.38Z"/><path class="cls-6" d="M49.83,59.94c-1.37.75-2.76,1.49-4.14,2.22l-.13.07c-1.32.69-2.64,1.36-4,2l-.2.1c-1.26.63-2.51,1.23-3.76,1.82l-.73.34c-1.1.51-2.19,1-3.27,1.48,3.64,4.32,8.83,7.65,16.2,10.39h0V59.94h0Z"/><path class="cls-6" d="M25.56,32.55c0,10.77.63,19.17,2.86,25.88.9-.39,1.8-.79,2.72-1.21l1-.45L34,55.88l1.16-.56,1.73-.86,1.24-.62L39.83,53l1.27-.66,1.66-.88L44,50.76l1.68-.91L47,49.17l1.92-1.07,1-.54h0V25.88h0Z"/></g></svg>