<?xml version="1.0" encoding="UTF-8"?>
<svg width="102px" height="103px" viewBox="0 0 102 103" version="1.1" xmlns="http://www.w3.org/2000/svg" xmlns:xlink="http://www.w3.org/1999/xlink">
    <!-- Generator: Sketch 53.2 (72643) - https://sketchapp.com -->
    <title>Artboard</title>
    <desc>Created with Sketch.</desc>
    <g id="Artboard" stroke="none" stroke-width="1" fill="none" fill-rule="evenodd">
        <g id="sync-b&amp;w" transform="translate(1.000000, 1.000000)" fill-rule="nonzero">
            <circle id="Oval" fill="#D71E00" cx="50" cy="50" r="50"></circle>
            <path d="M85.36,14.64 C104.888789,34.1687888 104.888789,65.8312112 85.36,85.36 C65.8312112,104.888789 34.1687888,104.888789 14.64,85.36 L85.36,14.64 Z" id="Path" fill="#C21A00"></path>
            <path d="M74,56.29 C70.09,58.19 60.75,59.53 49.83,59.53 C38.91,59.53 29.57,58.19 25.67,56.29 C24.41,56.9 23.72,57.57 23.72,58.29 C23.72,61.18 35.41,63.52 49.83,63.52 C64.25,63.52 76,61.16 76,58.27 C76,57.57 75.29,56.9 74,56.29 Z" id="Path" fill="#B7B7B7"></path>
            <ellipse id="Oval" fill="#FFFFFF" cx="49.87" cy="33.04" rx="26.12" ry="5.22"></ellipse>
            <path d="M74,43.68 C70.09,45.58 60.75,46.92 49.83,46.92 C38.91,46.92 29.57,45.58 25.67,43.68 C24.41,44.29 23.72,44.96 23.72,45.68 C23.72,48.56 35.41,50.9 49.83,50.9 C64.25,50.9 76,48.54 76,45.66 C76,45 75.29,44.29 74,43.68 Z" id="Path" fill="#B7B7B7"></path>
            <polygon id="Path" fill="#FFFFFF" points="49.83 11.99 42.04 22.75 57.62 22.75"></polygon>
            <polygon id="Path" fill="#EAEAEA" points="49.83 87.06 57.62 76.3 42.04 76.3"></polygon>
            <path d="M23.76,58.27 L23.76,66.93 C23.76,68.65 27.94,70.18 34.38,71.13 L42.24,63.27 C31.54,62.62 23.76,60.63 23.76,58.27 Z" id="Path" fill="#EAEAEA"></path>
            <path d="M49.87,50.88 C35.45,50.88 23.76,48.54 23.76,45.66 L23.76,54.31 C23.76,56.93 33.43,59.11 46.04,59.48 L54.72,50.79 C53.15,50.85 51.53,50.88 49.87,50.88 Z" id="Path" fill="#EAEAEA"></path>
            <path d="M49.87,38.26 C35.45,38.26 23.76,35.93 23.76,33.04 L23.76,41.69 C23.76,44.58 35.45,46.92 49.87,46.92 C53.05,46.92 56.1,46.8 58.92,46.59 L68.92,36.59 C62.6403197,37.7714147 56.2594534,38.3307873 49.87,38.26 L49.87,38.26 Z" id="Path" fill="#EAEAEA"></path>
            <path d="M76,66.93 L76,58.27 C76,61.16 64.31,63.5 49.88,63.5 C47.23,63.5 44.67,63.42 42.25,63.27 L34.39,71.13 C39.5230079,71.8310216 44.6994632,72.165202 49.88,72.13 C64.3,72.15 76,69.81 76,66.93 Z" id="Path" fill="#CDCDCD"></path>
            <path d="M76,54.31 L76,45.66 C76,48.21 66.84,50.33 54.73,50.79 L46,59.48 C47.25,59.48 48.53,59.53 49.83,59.53 C64.3,59.53 76,57.2 76,54.31 Z" id="Path" fill="#CDCDCD"></path>
            <path d="M76,41.69 L76,33 C76,34.39 73.3,35.64 68.91,36.58 L58.91,46.58 C68.88,45.86 76,43.94 76,41.69 Z" id="Path" fill="#CDCDCD"></path>
        </g>
        <circle id="Oval" fill="#000000" style="mix-blend-mode: color;" cx="51" cy="51" r="50"></circle>
    </g>
</svg>